<?xml version="1.0" encoding="utf-8"?>
<!-- Generator: Adobe Illustrator 25.4.1, SVG Export Plug-In . SVG Version: 6.00 Build 0)  -->
<svg version="1.1" id="Capa_1" xmlns="http://www.w3.org/2000/svg" xmlns:xlink="http://www.w3.org/1999/xlink" x="0px" y="0px"
	 viewBox="0 0 520 561" style="enable-background:new 0 0 520 561;" xml:space="preserve">
<style type="text/css">
	.st0{fill:#E789AB;stroke:#E789AB;stroke-width:2;}
</style>
<path class="st0" d="M232.1,8.2C240.6,3.5,250.2,1,260,1c9.8,0,19.4,2.5,27.9,7.2l201.4,111.9c9,5,16.5,12.3,21.7,21.1
	c5.2,8.9,8,18.9,7.9,29.2v220c0,10.3-2.7,20.3-8,29.2c-5.2,8.8-12.7,16.1-21.7,21.1L287.9,552.8c-8.5,4.7-18.2,7.2-27.9,7.2
	c-9.8,0-19.4-2.5-27.9-7.2L30.6,440.8c-9-5-16.4-12.3-21.6-21.1c-5.2-8.8-8-18.9-8-29.2V170.5c0-10.3,2.7-20.4,7.9-29.2
	c5.2-8.9,12.7-16.1,21.7-21.1L232.1,8.2z"/>
</svg>
