<?xml version="1.0" encoding="utf-8"?>
<!-- Generator: Adobe Illustrator 25.4.1, SVG Export Plug-In . SVG Version: 6.00 Build 0)  -->
<svg version="1.1" id="Capa_1" xmlns="http://www.w3.org/2000/svg" xmlns:xlink="http://www.w3.org/1999/xlink" x="0px" y="0px"
	 viewBox="0 0 474.4 63.8" style="enable-background:new 0 0 474.4 63.8;" xml:space="preserve">
<style type="text/css">
	.st0{fill:#009FA0;}
	.st1{fill:#FFFFFF;}
	.st2{fill:none;}
	.st3{fill-rule:evenodd;clip-rule:evenodd;fill:#FFFFFF;}
</style>
<path class="st0" d="M8.3,21.9c-4.4,0-8,3.6-8,8c0,6.4,7.7,11.8,8,12c0,0,8-5.6,8-12C16.3,25.5,12.7,21.9,8.3,21.9z M8.3,33.9
	c-2.2,0-4-1.8-4-4s1.8-4,4-4s4,1.8,4,4S10.5,33.9,8.3,33.9z"/>
<path class="st0" d="M41,32.7c-0.1-0.1-0.2-0.2-0.3-0.2c-0.1-0.1-0.3-0.1-0.4-0.1c-0.1,0-0.3,0-0.4,0.1c-0.1,0.1-0.2,0.1-0.3,0.2
	L38,34.3c-0.7-0.2-2.1-0.7-3-1.6c-0.9-0.9-1.4-2.3-1.6-3l1.6-1.6c0.1-0.1,0.2-0.2,0.2-0.3c0.1-0.1,0.1-0.3,0.1-0.4s0-0.3-0.1-0.4
	s-0.1-0.2-0.2-0.3l-4-4c-0.1-0.1-0.2-0.2-0.3-0.2c-0.1-0.1-0.3-0.1-0.4-0.1s-0.3,0-0.4,0.1s-0.2,0.1-0.3,0.2l-2.7,2.7
	c-0.4,0.4-0.6,0.9-0.6,1.4c0,1.4,0.4,6.4,4.3,10.3s8.8,4.3,10.3,4.3l0,0c0.5,0,1-0.2,1.4-0.6l2.7-2.7c0.1-0.1,0.2-0.2,0.2-0.3
	s0.1-0.3,0.1-0.4c0-0.1,0-0.3-0.1-0.4S45,36.8,45,36.7L41,32.7z M40.8,39.4c-1.2,0-5.5-0.4-8.9-3.7c-3.4-3.4-3.7-7.7-3.7-8.9l2-2
	l2.6,2.6l-1.3,1.3c-0.1,0.1-0.2,0.3-0.3,0.4c0,0.2-0.1,0.3,0,0.5c0,0.1,0.6,2.8,2.3,4.5c1.7,1.7,4.4,2.2,4.5,2.3c0.2,0,0.3,0,0.5,0
	s0.3-0.1,0.4-0.3l1.3-1.3l2.6,2.6L40.8,39.4z"/>
<path class="st0" d="M73.3,39.9h-16c-0.5,0-1-0.2-1.4-0.6s-0.6-0.9-0.6-1.4v-12c0-0.5,0.2-1,0.6-1.4c0.4-0.4,0.9-0.6,1.4-0.6h16
	c0.5,0,1,0.2,1.4,0.6s0.6,0.9,0.6,1.4v12c0,0.5-0.2,1-0.6,1.4C74.4,39.7,73.9,39.9,73.3,39.9z M57.3,27.8v10.1h16V27.8l-8,5.3
	L57.3,27.8z M58.1,25.9l7.2,4.8l7.2-4.8C72.5,25.9,58.1,25.9,58.1,25.9z"/>
<path class="st0" d="M91.5,14.4c-3.4,0-6.2,2.9-6.2,6.4V43c0,3.5,2.8,6.4,6.2,6.4h11.7V35.8h-3.5v-4.9h3.5v-4.2
	c0-3.3,2.1-6.3,6.9-6.3c1.9,0,3.4,0.2,3.4,0.2l-0.1,4.6c0,0-1.5,0-3.1,0c-1.7,0-2,0.8-2,2.2V31h5.2l-0.2,4.9h-5v13.7h4.8
	c3.4,0,6.2-2.9,6.2-6.4V20.8c0-3.5-2.8-6.4-6.2-6.4H91.5L91.5,14.4z"/>
<path class="st0" d="M170.1,18.6c-1.1,1.8-2.5,3.3-4.2,4.6c0,0.3,0,0.7,0,1.1c0,2.4-0.3,4.7-1,7.1s-1.7,4.6-3,6.8s-3,4.1-4.8,5.8
	c-1.9,1.7-4.1,3-6.7,4c-2.6,1-5.4,1.5-8.4,1.5c-4.7,0-9-1.3-12.9-4c0.7,0.1,1.4,0.1,2,0.1c3.9,0,7.4-1.3,10.4-3.8
	c-1.8,0-3.4-0.6-4.9-1.8c-1.4-1.1-2.4-2.6-3-4.4c0.5,0.1,1.1,0.2,1.6,0.2c0.8,0,1.5-0.1,2.2-0.3c-1.9-0.4-3.5-1.4-4.8-3
	c-1.3-1.6-1.9-3.5-1.9-5.6v-0.1c1.2,0.7,2.5,1.1,3.8,1.1c-1.1-0.8-2.1-1.9-2.7-3.1c-0.7-1.3-1-2.7-1-4.2c0-1.6,0.4-3.1,1.1-4.4
	c2.1,2.7,4.7,4.9,7.7,6.5s6.2,2.5,9.7,2.7c-0.1-0.6-0.2-1.3-0.2-2c0-2.4,0.8-4.5,2.5-6.2c1.6-1.7,3.6-2.6,5.9-2.6
	c2.4,0,4.5,0.9,6.1,2.8c1.9-0.4,3.7-1.1,5.3-2.1c-0.6,2.1-1.9,3.7-3.7,4.9C166.9,19.8,168.5,19.3,170.1,18.6L170.1,18.6z"/>
<path class="st0" d="M211.6,14.9h-29.1c-1.4,0-2.5,1.1-2.5,2.5v29.1c0,1.4,1.1,2.5,2.5,2.5h29.1c1.4,0,2.5-1.1,2.5-2.5V17.4
	C214,16,213,14.9,211.6,14.9z M192.1,40.6H188V28.2h4.1V40.6z M190,26.5L190,26.5c-1.4,0-2.3-1-2.3-2.2s0.9-2.2,2.3-2.2
	c1.4,0,2.3,0.9,2.3,2.2C192.4,25.5,191.5,26.5,190,26.5z M207,40.6h-4.1V34c0-1.7-0.6-2.8-2.1-2.8c-1.1,0-1.8,0.8-2.1,1.5
	c-0.1,0.3-0.1,0.6-0.1,1v7h-4.1c0,0,0.1-11.3,0-12.5h4.1V30c0.6-0.8,1.5-2.1,3.7-2.1c2.7,0,4.8,1.8,4.8,5.6L207,40.6L207,40.6z"/>
<path class="st0" d="M248.8,35.4c-0.4-0.2-2.5-1.3-2.9-1.4c-0.4-0.1-0.7-0.2-1,0.2s-1.1,1.4-1.3,1.7s-0.5,0.3-0.9,0.1
	s-1.8-0.7-3.4-2.2c-1.3-1.2-2.1-2.6-2.4-3c-0.2-0.4,0-0.7,0.2-0.9c0.2-0.2,0.4-0.5,0.6-0.8c0.2-0.3,0.3-0.4,0.4-0.7
	c0.1-0.3,0.1-0.5,0-0.8c-0.1-0.2-1-2.4-1.3-3.2c-0.3-0.8-0.7-0.7-1-0.7c-0.2,0-0.5,0-0.8,0s-0.7,0.1-1.1,0.5
	c-0.4,0.4-1.5,1.5-1.5,3.6s1.5,4.2,1.7,4.5s3,4.7,7.2,6.5c1,0.4,1.8,0.7,2.4,0.9c1,0.3,1.9,0.3,2.7,0.2s2.5-1.1,2.9-2.1
	s0.4-1.9,0.3-2.1c-0.1-0.2-0.4-0.3-0.8-0.5L248.8,35.4z M241.1,46.2L241.1,46.2c-2.5,0-5-0.7-7.2-2l-0.5-0.3l-5.3,1.4l1.4-5.3
	l-0.3-0.5c-1.4-2.3-2.1-5-2.1-7.7c0-7.9,6.3-14.4,14.1-14.4c3.8,0,7.3,1.5,10,4.2c1.3,1.3,2.3,2.9,3.1,4.7c0.7,1.8,1.1,3.6,1.1,5.5
	C255.2,39.7,248.9,46.2,241.1,46.2L241.1,46.2z M253.1,19.5c-3.2-3.2-7.5-5-12-5c-9.3,0-16.9,7.8-16.9,17.3c0,3.1,0.8,6,2.3,8.7
	l-2.4,9l9-2.4c2.5,1.4,5.3,2.1,8.1,2.1l0,0c9.3,0,16.9-7.8,16.9-17.4C258,27.2,256.2,22.8,253.1,19.5L253.1,19.5z"/>
<path class="st1" d="M334.7,21.9c-4.4,0-8,3.6-8,8c0,6.4,7.7,11.8,8,12c0,0,8-5.6,8-12C342.7,25.5,339.1,21.9,334.7,21.9z
	 M334.7,33.9c-2.2,0-4-1.8-4-4s1.8-4,4-4s4,1.8,4,4S336.9,33.9,334.7,33.9z"/>
<path class="st1" d="M367.5,32.7c-0.1-0.1-0.2-0.2-0.3-0.2c-0.1-0.1-0.3-0.1-0.4-0.1s-0.3,0-0.4,0.1s-0.2,0.1-0.3,0.2l-1.6,1.6
	c-0.7-0.2-2.1-0.7-3-1.6c-0.9-0.9-1.4-2.3-1.6-3l1.6-1.6c0.1-0.1,0.2-0.2,0.2-0.3c0.1-0.1,0.1-0.3,0.1-0.4s0-0.3-0.1-0.4
	s-0.1-0.2-0.2-0.3l-4-4c-0.1-0.1-0.2-0.2-0.3-0.2c-0.1-0.1-0.3-0.1-0.4-0.1s-0.3,0-0.4,0.1s-0.2,0.1-0.3,0.2l-2.7,2.7
	c-0.4,0.4-0.6,0.9-0.6,1.4c0,1.4,0.4,6.4,4.3,10.3s8.8,4.3,10.3,4.3l0,0c0.5,0,1-0.2,1.4-0.6l2.7-2.7c0.1-0.1,0.2-0.2,0.2-0.3
	s0.1-0.3,0.1-0.4c0-0.1,0-0.3-0.1-0.4s-0.1-0.2-0.2-0.3L367.5,32.7z M367.3,39.4c-1.2,0-5.5-0.4-8.9-3.7c-3.4-3.4-3.7-7.7-3.7-8.9
	l2-2l2.6,2.6l-1.3,1.3c-0.1,0.1-0.2,0.3-0.3,0.4c0,0.2-0.1,0.3,0,0.5c0,0.1,0.6,2.8,2.3,4.5s4.4,2.2,4.5,2.3c0.2,0,0.3,0,0.5,0
	s0.3-0.1,0.4-0.3l1.3-1.3l2.6,2.6L367.3,39.4z"/>
<path class="st1" d="M399.4,39.9h-16c-0.5,0-1-0.2-1.4-0.6c-0.4-0.4-0.6-0.9-0.6-1.4v-12c0-0.5,0.2-1,0.6-1.4s0.9-0.6,1.4-0.6h16
	c0.5,0,1,0.2,1.4,0.6s0.6,0.9,0.6,1.4v12c0,0.5-0.2,1-0.6,1.4C400.4,39.7,399.9,39.9,399.4,39.9z M383.4,27.8v10.1h16V27.8l-8,5.3
	L383.4,27.8z M384.2,25.9l7.2,4.8l7.2-4.8C398.6,25.9,384.2,25.9,384.2,25.9z"/>
<g>
	<path class="st2" d="M302.2,29.3l-9-9c-0.1-0.1-0.3-0.3-0.5-0.3c-0.2-0.1-0.4-0.1-0.6-0.1s-0.4,0-0.6,0.1c-0.2,0.1-0.3,0.2-0.5,0.3
		l-9,9c-0.3,0.3-0.4,0.7-0.4,1.1c0,0.4,0.2,0.8,0.4,1.1c0.3,0.3,0.7,0.4,1.1,0.4c0.4,0,0.8-0.2,1.1-0.4l6.4-6.4v17.4
		c0,0.4,0.2,0.8,0.4,1.1c0.2,0.3,0.7,0.4,1.1,0.4c0.4,0,0.8-0.2,1.1-0.4c0.3-0.2,0.4-0.8,0.4-1.2V25.1l6.4,6.4
		c0.1,0.1,0.3,0.3,0.5,0.3c0.2,0.1,0.4,0.1,0.6,0.1s0.4,0,0.6-0.1s0.3-0.2,0.5-0.3c0.2-0.1,0.3-0.3,0.3-0.5c0.1-0.2,0.1-0.4,0.1-0.6
		c0-0.2,0-0.4-0.1-0.6C302.4,29.6,302.3,29.5,302.2,29.3z"/>
	<path class="st0" d="M314.3,9.7c-1.1-1.2-2.6-1.8-4.2-1.8h-36c-1.5,0-3,0.7-4.2,1.8c-1.2,1.1-1.8,2.6-1.8,4.2v36
		c0,1.5,0.7,3.1,1.8,4.2c1.1,1.2,2.6,1.8,4.2,1.8h36c1.5,0,3.1-0.7,4.2-1.8c1.2-1.1,1.8-2.6,1.8-4.2v-36
		C316.1,12.4,315.4,10.8,314.3,9.7z M302.5,31c0,0.2-0.1,0.4-0.3,0.5c-0.2,0.1-0.3,0.2-0.5,0.3s-0.4,0.1-0.6,0.1s-0.4,0-0.6-0.1
		c-0.2,0-0.4-0.2-0.5-0.3l-6.4-6.4v17.3c0,0.4-0.1,1-0.4,1.2c-0.3,0.2-0.7,0.4-1.1,0.4c-0.4,0-0.9-0.1-1.1-0.4
		c-0.2-0.3-0.4-0.7-0.4-1.1V25.1l-6.4,6.4c-0.3,0.2-0.7,0.4-1.1,0.4c-0.4,0-0.8-0.1-1.1-0.4c-0.2-0.3-0.4-0.7-0.4-1.1
		c0-0.4,0.1-0.8,0.4-1.1l9-9c0.2-0.1,0.3-0.2,0.5-0.3c0.2-0.1,0.4-0.1,0.6-0.1s0.4,0,0.6,0.1c0.2,0,0.4,0.2,0.5,0.3l9,9
		c0.1,0.2,0.2,0.3,0.3,0.5c0.1,0.2,0.1,0.4,0.1,0.6C302.6,30.6,302.6,30.8,302.5,31z"/>
</g>
<path class="st1" d="M414,30.1c-1.1,0-2,0.9-2,2c0,1.1,0.9,2,2,2s2-0.9,2-2C416,31,415.1,30.1,414,30.1z M414,24.1c-1.1,0-2,0.9-2,2
	c0,1.1,0.9,2,2,2s2-0.9,2-2C416,25,415.1,24.1,414,24.1z M414,36c-1.1,0-2,0.9-2,2c0,1.1,0.9,2,2,2s2-0.9,2-2
	C416,36.9,415.1,36,414,36z"/>
<path class="st3" d="M436.2,32.1l5.1-5.1c0.6-0.6,0.6-1.6,0-2.2c-0.6-0.6-1.6-0.6-2.2,0l-5.1,5.1l-5.1-5.1c-0.6-0.6-1.6-0.6-2.2,0
	c-0.6,0.6-0.6,1.6,0,2.2l5.1,5.1l-5.1,5.1c-0.6,0.6-0.6,1.6,0,2.2c0.3,0.3,0.7,0.5,1.1,0.5c0.4,0,0.8-0.2,1.1-0.5l5.1-5.1l5.1,5.1
	c0.3,0.3,0.7,0.5,1.1,0.5c0.4,0,0.8-0.2,1.1-0.5c0.6-0.6,0.6-1.6,0-2.2L436.2,32.1z"/>
</svg>
