<svg width="243" height="66" viewBox="0 0 243 66" fill="none" xmlns="http://www.w3.org/2000/svg">
<path d="M26.881 45H45.097V38.961H34.669V21.9H26.881V45ZM58.6739 45.528C66.1979 45.528 71.7089 40.446 71.7089 33.45C71.7089 26.454 66.1979 21.372 58.6739 21.372C51.1499 21.372 45.6389 26.454 45.6389 33.45C45.6389 40.446 51.1499 45.528 58.6739 45.528ZM58.6739 39.225C55.8029 39.225 53.4929 37.047 53.4929 33.45C53.4929 29.853 55.8029 27.675 58.6739 27.675C61.5449 27.675 63.8549 29.853 63.8549 33.45C63.8549 37.047 61.5449 39.225 58.6739 39.225ZM89.4516 38.664C88.4946 39.06 87.5706 39.225 86.6136 39.225C83.2806 39.225 81.1026 36.915 81.1026 33.45C81.1026 29.886 83.2806 27.675 86.7126 27.675C88.7586 27.675 90.4416 28.533 91.8936 30.216L96.8766 25.827C94.5336 22.956 90.8706 21.372 86.3166 21.372C78.6936 21.372 73.2486 26.355 73.2486 33.45C73.2486 40.545 78.6936 45.528 86.1516 45.528C89.5506 45.528 93.4116 44.505 96.2166 42.591V32.823H89.4516V38.664ZM111.283 45.528C118.807 45.528 124.318 40.446 124.318 33.45C124.318 26.454 118.807 21.372 111.283 21.372C103.759 21.372 98.2479 26.454 98.2479 33.45C98.2479 40.446 103.759 45.528 111.283 45.528ZM111.283 39.225C108.412 39.225 106.102 37.047 106.102 33.45C106.102 29.853 108.412 27.675 111.283 27.675C114.154 27.675 116.464 29.853 116.464 33.45C116.464 37.047 114.154 39.225 111.283 39.225ZM164.032 45L163.966 21.9H157.564L150.238 34.209L142.714 21.9H136.312V45H143.407V34.836L148.423 42.921H151.855L156.871 34.473L156.937 45H164.032ZM184.462 21.9L178.819 35.397L173.308 21.9H164.926L174.694 45H182.35L192.118 21.9H184.462ZM192.53 45H203.915C211.637 45 216.95 40.611 216.95 33.45C216.95 26.289 211.637 21.9 203.915 21.9H192.53V45ZM200.318 38.928V27.972H203.585C206.852 27.972 209.096 29.919 209.096 33.45C209.096 36.981 206.852 38.928 203.585 38.928H200.318Z" fill="white"/>
<rect x="1.5" y="1.5" width="240" height="63" stroke="white" stroke-width="3"/>
</svg>
